<?xml version="1.0" encoding="utf-8"?>
<!-- Generator: Adobe Illustrator 26.3.1, SVG Export Plug-In . SVG Version: 6.00 Build 0)  -->
<svg version="1.1" id="lines" xmlns="http://www.w3.org/2000/svg" xmlns:xlink="http://www.w3.org/1999/xlink" x="0px" y="0px"
	 viewBox="0 0 289.8 690.6" style="enable-background:new 0 0 289.8 690.6;" xml:space="preserve">
<style type="text/css">
	.st0{fill:none;stroke:#00235B;stroke-width:12;stroke-miterlimit:10;}
</style>
<g>
	<path class="st0" d="M258,550.3v21.3c0,62.5-50.6,113.1-113.1,113.1l0,0c-62.5,0-113.1-50.6-113.1-113.1v-21.3"/>
	<line class="st0" x1="258" y1="239.6" x2="258" y2="451"/>
	<path class="st0" d="M31.8,140.4v-21.3C31.8,56.6,82.4,6,144.9,6l0,0C207.4,6,258,56.6,258,119.1v21.3"/>
	<line class="st0" x1="31.8" y1="451" x2="31.8" y2="239.6"/>
	<g>
		<path class="st0" d="M27,140.4h31c11.6,0,21,9.4,21,21v57.2c0,11.6-9.4,21-21,21H27c-11.6,0-21-9.4-21-21v-57.2
			C6,149.8,15.4,140.4,27,140.4z"/>
		<path class="st0" d="M231.8,140.4h31c11.6,0,21,9.4,21,21v57.2c0,11.6-9.4,21-21,21h-31c-11.6,0-21-9.4-21-21v-57.2
			C210.7,149.8,220.1,140.4,231.8,140.4z"/>
		<circle class="st0" cx="144.9" cy="205.2" r="18.6"/>
		<path class="st0" d="M79.1,169.7v32c5.7,2.4,11.6,5.1,17.2,8.7c19.6,12.7,17.9,33.8,48.6,33.8c32.8,0,26.4-20.4,47.3-33.8
			c5.5-3.5,12-6,18.5-8.1v-32.5L79.1,169.7L79.1,169.7z"/>
	</g>
	<g>
		<path class="st0" d="M262.8,550.3h-31c-11.6,0-21-9.4-21-21V472c0-11.6,9.4-21,21-21h31c11.6,0,21,9.4,21,21v57.2
			C283.8,540.8,274.4,550.3,262.8,550.3z"/>
		<path class="st0" d="M58.1,550.3H27c-11.6,0-21-9.4-21-21V472c0-11.6,9.4-21,21-21h31c11.6,0,21,9.4,21,21v57.2
			C79.1,540.8,69.7,550.3,58.1,550.3z"/>
		<circle class="st0" cx="144.9" cy="485.5" r="18.6"/>
		<path class="st0" d="M210.7,520.9v-32c-5.7-2.4-11.6-5.1-17.2-8.7c-19.6-12.7-17.9-33.8-48.6-33.8c-32.8,0-26.4,20.4-47.3,33.8
			c-5.5,3.5-12.1,6-18.5,8.2v32.5L210.7,520.9L210.7,520.9z"/>
	</g>
</g>
</svg>
